<?xml version="1.0" encoding="UTF-8"?>
<svg width="210px" height="100px" viewBox="0 0 210 100" version="1.1" xmlns="http://www.w3.org/2000/svg" xmlns:xlink="http://www.w3.org/1999/xlink">
    <title>DataDisplay / Empty / Developer</title>
    <g id="DataDisplay-/-Empty-/-Developer" stroke="none" stroke-width="1" fill="none" fill-rule="evenodd">
        <g id="Illustration-/-Developer" transform="translate(2.000000, 0.000000)">
            <path d="M42,96 L158,96 C159.104569,96 160,96.8954305 160,98 C160,99.1045695 159.104569,100 158,100 L42,100 C40.8954305,100 40,99.1045695 40,98 C40,96.8954305 40.8954305,96 42,96 Z" id="Rectangle-4" fill="#E3E3E3"></path>
            <g id="Icon" transform="translate(52.000000, 28.000000)" fill-rule="nonzero">
                <path d="M73.2869988,-1.53104631 L73.4142136,-1.41421356 L97.4142136,22.5857864 C98.1541543,23.3257272 98.1930986,24.5012114 97.5310463,25.2869988 L97.4142136,25.4142136 L73.4142136,49.4142136 C72.633165,50.1952621 71.366835,50.1952621 70.5857864,49.4142136 C69.8458457,48.6742728 69.8069014,47.4987886 70.4689537,46.7130012 L70.5857864,46.5857864 L93.171,24 L70.5857864,1.41421356 C69.8047379,0.633164979 69.8047379,-0.633164979 70.5857864,-1.41421356 C71.2846194,-2.11304651 72.3719463,-2.18660787 73.1525674,-1.63489765 L73.2869988,-1.53104631 Z" id="Line" fill="#CCCCCC"></path>
                <path d="M56.1391832,-0.733049037 C56.544035,-1.76074977 57.7053483,-2.26566859 58.733049,-1.86081679 C59.7118116,-1.47524364 60.2163956,-0.403537629 59.9125056,0.585421827 L59.8608168,0.733049037 L40.3608168,50.233049 C39.955965,51.2607498 38.7946517,51.7656686 37.766951,51.3608168 C36.7881884,50.9752436 36.2836044,49.9035376 36.5874944,48.9145782 L36.6391832,48.766951 L56.1391832,-0.733049037 Z" id="Line-2" fill="#E3E3E3"></path>
                <path d="M1.28699879,-1.53104631 L1.41421356,-1.41421356 L25.4142136,22.5857864 C26.1541543,23.3257272 26.1930986,24.5012114 25.5310463,25.2869988 L25.4142136,25.4142136 L1.41421356,49.4142136 C0.633164979,50.1952621 -0.633164979,50.1952621 -1.41421356,49.4142136 C-2.15415433,48.6742728 -2.19309858,47.4987886 -1.53104631,46.7130012 L-1.41421356,46.5857864 L21.171,23.999 L-1.41421356,1.41421356 C-2.19526215,0.633164979 -2.19526215,-0.633164979 -1.41421356,-1.41421356 C-0.715380619,-2.11304651 0.371946277,-2.18660787 1.15256742,-1.63489765 L1.28699879,-1.53104631 Z" id="Line" fill="#CCCCCC" transform="translate(12.000000, 24.000000) scale(-1, 1) translate(-12.000000, -24.000000) "></path>
            </g>
            <path d="M184,28 C185.104569,28 186,28.8954305 186,30 L186,34 L190,34 C191.104569,34 192,34.8954305 192,36 C192,37.1045695 191.104569,38 190,38 L186,38 L186,42 C186,43.1045695 185.104569,44 184,44 C182.895431,44 182,43.1045695 182,42 L182,38 L178,38 C176.895431,38 176,37.1045695 176,36 C176,34.8954305 176.895431,34 178,34 L182,34 L182,30 C182,28.8954305 182.895431,28 184,28 Z" id="Rectangle-4" fill="#E3E3E3"></path>
            <path d="M54,0 C55.1045695,-2.02906125e-16 56,0.8954305 56,2 L56,4 L58,4 C59.1045695,4 60,4.8954305 60,6 C60,7.1045695 59.1045695,8 58,8 L56,8 L56,10 C56,11.1045695 55.1045695,12 54,12 C52.8954305,12 52,11.1045695 52,10 L52,8 L50,8 C48.8954305,8 48,7.1045695 48,6 C48,4.8954305 48.8954305,4 50,4 L52,4 L52,2 C52,0.8954305 52.8954305,2.02906125e-16 54,0 Z" id="Rectangle-4" fill="#E3E3E3"></path>
            <path d="M6,62 C1.581722,62 -2,65.581722 -2,70 C-2,74.418278 1.581722,78 6,78 C10.418278,78 14,74.418278 14,70 C14,65.581722 10.418278,62 6,62 Z M6,66 C8.209139,66 10,67.790861 10,70 C10,72.209139 8.209139,74 6,74 C3.790861,74 2,72.209139 2,70 C2,67.790861 3.790861,66 6,66 Z" id="Oval" fill="#E3E3E3" fill-rule="nonzero"></path>
            <circle id="Oval-2" fill="#E3E3E3" cx="204" cy="72" r="4"></circle>
        </g>
    </g>
</svg>